G75*
%MOIN*%
%OFA0B0*%
%FSLAX25Y25*%
%IPPOS*%
%LPD*%
%AMOC8*
5,1,8,0,0,1.08239X$1,22.5*
%
%ADD10C,0.00600*%
%ADD11C,0.00500*%
D10*
X0058638Y0058569D02*
X0058638Y0060931D01*
X0063362Y0060931D02*
X0063362Y0058569D01*
X0063362Y0093569D02*
X0063362Y0095931D01*
X0058638Y0095931D02*
X0058638Y0093569D01*
X0059819Y0109888D02*
X0062181Y0109888D01*
X0062181Y0114612D02*
X0059819Y0114612D01*
X0058638Y0128569D02*
X0058638Y0130931D01*
X0063362Y0130931D02*
X0063362Y0128569D01*
X0061781Y0151300D02*
X0059646Y0151300D01*
X0058578Y0152368D01*
X0058578Y0154503D01*
X0059646Y0155570D01*
X0061781Y0155570D01*
X0062849Y0154503D01*
X0062849Y0152368D01*
X0061781Y0151300D01*
X0065024Y0151300D02*
X0065024Y0154503D01*
X0066091Y0155570D01*
X0069294Y0155570D01*
X0069294Y0151300D01*
X0071469Y0151300D02*
X0071469Y0154503D01*
X0072537Y0155570D01*
X0074672Y0155570D01*
X0075740Y0154503D01*
X0077915Y0155570D02*
X0081117Y0155570D01*
X0082185Y0154503D01*
X0082185Y0152368D01*
X0081117Y0151300D01*
X0077915Y0151300D01*
X0075740Y0151300D02*
X0075740Y0157705D01*
X0084360Y0154503D02*
X0084360Y0153435D01*
X0088631Y0153435D01*
X0088631Y0152368D02*
X0088631Y0154503D01*
X0087563Y0155570D01*
X0085428Y0155570D01*
X0084360Y0154503D01*
X0085428Y0151300D02*
X0087563Y0151300D01*
X0088631Y0152368D01*
X0090806Y0157705D02*
X0095076Y0157705D01*
X0092941Y0157705D02*
X0092941Y0151300D01*
X0099819Y0114612D02*
X0102181Y0114612D01*
X0102181Y0109888D02*
X0099819Y0109888D01*
X0056403Y0151300D02*
X0053200Y0151300D01*
X0052133Y0152368D01*
X0052133Y0154503D01*
X0053200Y0155570D01*
X0056403Y0155570D01*
X0056403Y0157705D02*
X0056403Y0151300D01*
X0049958Y0151300D02*
X0047822Y0151300D01*
X0048890Y0151300D02*
X0048890Y0157705D01*
X0049958Y0157705D01*
X0045661Y0154503D02*
X0045661Y0152368D01*
X0044593Y0151300D01*
X0042458Y0151300D01*
X0041390Y0152368D01*
X0041390Y0154503D01*
X0042458Y0155570D01*
X0044593Y0155570D01*
X0045661Y0154503D01*
X0039215Y0154503D02*
X0039215Y0152368D01*
X0038148Y0151300D01*
X0034945Y0151300D01*
X0034945Y0150232D02*
X0034945Y0155570D01*
X0038148Y0155570D01*
X0039215Y0154503D01*
X0037080Y0149165D02*
X0036012Y0149165D01*
X0034945Y0150232D01*
X0032770Y0152368D02*
X0031702Y0151300D01*
X0028499Y0151300D01*
X0028499Y0150232D02*
X0029567Y0149165D01*
X0030634Y0149165D01*
X0028499Y0150232D02*
X0028499Y0155570D01*
X0032770Y0155570D02*
X0032770Y0152368D01*
X0023362Y0130931D02*
X0023362Y0128569D01*
X0018638Y0128569D02*
X0018638Y0130931D01*
D11*
X0025850Y0131039D02*
X0027752Y0131039D01*
X0027435Y0130097D02*
X0027752Y0129780D01*
X0027752Y0129146D01*
X0027435Y0128829D01*
X0027435Y0127887D02*
X0027752Y0127570D01*
X0027752Y0126936D01*
X0027435Y0126619D01*
X0027435Y0127887D02*
X0027118Y0127887D01*
X0025850Y0126619D01*
X0025850Y0127887D01*
X0025850Y0128829D02*
X0027118Y0130097D01*
X0027435Y0130097D01*
X0026484Y0131039D02*
X0025850Y0131990D01*
X0026484Y0131039D02*
X0027118Y0131990D01*
X0025850Y0130097D02*
X0025850Y0128829D01*
X0065600Y0129094D02*
X0065600Y0128777D01*
X0065917Y0128777D01*
X0065917Y0129094D01*
X0065600Y0129094D01*
X0065600Y0129882D02*
X0065917Y0129882D01*
X0067185Y0131149D01*
X0067502Y0131149D01*
X0067502Y0129882D01*
X0067502Y0132092D02*
X0065600Y0132092D01*
X0066234Y0132092D02*
X0065600Y0133042D01*
X0066234Y0132092D02*
X0066868Y0133042D01*
X0066551Y0127835D02*
X0066551Y0126567D01*
X0067502Y0127518D01*
X0065600Y0127518D01*
X0069158Y0112652D02*
X0069158Y0110750D01*
X0069158Y0111384D02*
X0068208Y0112018D01*
X0069158Y0111384D02*
X0068208Y0110750D01*
X0070101Y0111067D02*
X0070418Y0110750D01*
X0071051Y0110750D01*
X0071368Y0111067D01*
X0072156Y0111067D02*
X0072156Y0110750D01*
X0072473Y0110750D01*
X0072473Y0111067D01*
X0072156Y0111067D01*
X0073415Y0111067D02*
X0073732Y0110750D01*
X0074366Y0110750D01*
X0074683Y0111067D01*
X0074049Y0111701D02*
X0073732Y0111701D01*
X0073415Y0111384D01*
X0073415Y0111067D01*
X0073732Y0111701D02*
X0073415Y0112018D01*
X0073415Y0112335D01*
X0073732Y0112652D01*
X0074366Y0112652D01*
X0074683Y0112335D01*
X0071368Y0112335D02*
X0071051Y0112652D01*
X0070418Y0112652D01*
X0070101Y0112335D01*
X0070101Y0112018D01*
X0070418Y0111701D01*
X0070101Y0111384D01*
X0070101Y0111067D01*
X0070418Y0111701D02*
X0070734Y0111701D01*
X0066868Y0098042D02*
X0066234Y0097092D01*
X0065600Y0098042D01*
X0065600Y0097092D02*
X0067502Y0097092D01*
X0067185Y0096149D02*
X0066868Y0096149D01*
X0066551Y0095832D01*
X0066551Y0095199D01*
X0066868Y0094882D01*
X0067185Y0094882D01*
X0067502Y0095199D01*
X0067502Y0095832D01*
X0067185Y0096149D01*
X0066551Y0095832D02*
X0066234Y0096149D01*
X0065917Y0096149D01*
X0065600Y0095832D01*
X0065600Y0095199D01*
X0065917Y0094882D01*
X0066234Y0094882D01*
X0066551Y0095199D01*
X0065917Y0094094D02*
X0065600Y0094094D01*
X0065600Y0093777D01*
X0065917Y0093777D01*
X0065917Y0094094D01*
X0065917Y0092835D02*
X0065600Y0092518D01*
X0065600Y0091884D01*
X0065917Y0091567D01*
X0066551Y0091567D01*
X0066551Y0092518D01*
X0066234Y0092835D01*
X0065917Y0092835D01*
X0067185Y0092201D02*
X0066551Y0091567D01*
X0067185Y0092201D02*
X0067502Y0092835D01*
X0066868Y0063042D02*
X0066234Y0062092D01*
X0065600Y0063042D01*
X0065600Y0062092D02*
X0067502Y0062092D01*
X0067185Y0061149D02*
X0066868Y0061149D01*
X0066551Y0060832D01*
X0066551Y0060199D01*
X0066868Y0059882D01*
X0067185Y0059882D01*
X0067502Y0060199D01*
X0067502Y0060832D01*
X0067185Y0061149D01*
X0066551Y0060832D02*
X0066234Y0061149D01*
X0065917Y0061149D01*
X0065600Y0060832D01*
X0065600Y0060199D01*
X0065917Y0059882D01*
X0066234Y0059882D01*
X0066551Y0060199D01*
X0065917Y0059094D02*
X0065600Y0059094D01*
X0065600Y0058777D01*
X0065917Y0058777D01*
X0065917Y0059094D01*
X0065917Y0057835D02*
X0065600Y0057518D01*
X0065600Y0056884D01*
X0065917Y0056567D01*
X0066551Y0056567D01*
X0066551Y0057518D01*
X0066234Y0057835D01*
X0065917Y0057835D01*
X0067185Y0057201D02*
X0066551Y0056567D01*
X0067185Y0057201D02*
X0067502Y0057835D01*
X0108760Y0110750D02*
X0109711Y0111384D01*
X0108760Y0112018D01*
X0109711Y0112652D02*
X0109711Y0110750D01*
X0110653Y0110750D02*
X0111921Y0110750D01*
X0110653Y0112018D01*
X0110653Y0112335D01*
X0110970Y0112652D01*
X0111604Y0112652D01*
X0111921Y0112335D01*
X0112863Y0112335D02*
X0113180Y0112652D01*
X0113814Y0112652D01*
X0114131Y0112335D01*
X0112863Y0112335D02*
X0112863Y0112018D01*
X0114131Y0110750D01*
X0112863Y0110750D01*
M02*
