%
M48
M72
T01C0.0394
T02C0.0400
%
T01
X4100Y14600
X5100Y14600
X6100Y14600
X7100Y14600
X8100Y14600
T02
X820Y1585
X820Y3365
X820Y5085
X820Y6865
X820Y8585
X820Y10365
X820Y12085
X820Y13865
X3380Y13865
X3380Y12085
X3380Y10365
X3380Y8585
X3380Y6865
X3380Y5085
X3380Y3365
X3380Y1585
X4820Y1585
X4820Y3365
X4820Y5085
X4820Y6865
X4820Y8585
X4820Y10365
X4820Y12085
X4820Y13865
X7380Y13865
X7380Y12085
X7380Y10365
X7380Y8585
X7380Y6865
X7380Y5085
X7380Y3365
X7380Y1585
X8820Y1585
X8820Y3365
X8820Y5085
X8820Y6865
X8820Y8585
X8820Y10365
X8820Y12085
X8820Y13865
X11380Y13865
X11380Y12085
X11380Y10365
X11380Y8585
X11380Y6865
X11380Y5085
X11380Y3365
X11380Y1585
M30
