G75*
%MOIN*%
%OFA0B0*%
%FSLAX25Y25*%
%IPPOS*%
%LPD*%
%AMOC8*
5,1,8,0,0,1.08239X$1,22.5*
%
%ADD10C,0.08200*%
%ADD11C,0.07400*%
D10*
X0008200Y0015850D03*
X0008200Y0033650D03*
X0008200Y0050850D03*
X0008200Y0068650D03*
X0008200Y0085850D03*
X0008200Y0103650D03*
X0008200Y0120850D03*
X0008200Y0138650D03*
X0033800Y0138650D03*
X0033800Y0120850D03*
X0033800Y0103650D03*
X0033800Y0085850D03*
X0033800Y0068650D03*
X0033800Y0050850D03*
X0033800Y0033650D03*
X0033800Y0015850D03*
X0048200Y0015850D03*
X0048200Y0033650D03*
X0048200Y0050850D03*
X0048200Y0068650D03*
X0048200Y0085850D03*
X0048200Y0103650D03*
X0048200Y0120850D03*
X0048200Y0138650D03*
X0073800Y0138650D03*
X0073800Y0120850D03*
X0073800Y0103650D03*
X0073800Y0085850D03*
X0073800Y0068650D03*
X0073800Y0050850D03*
X0073800Y0033650D03*
X0073800Y0015850D03*
X0088200Y0015850D03*
X0088200Y0033650D03*
X0088200Y0050850D03*
X0088200Y0068650D03*
X0088200Y0085850D03*
X0088200Y0103650D03*
X0088200Y0120850D03*
X0088200Y0138650D03*
X0113800Y0138650D03*
X0113800Y0120850D03*
X0113800Y0103650D03*
X0113800Y0085850D03*
X0113800Y0068650D03*
X0113800Y0050850D03*
X0113800Y0033650D03*
X0113800Y0015850D03*
D11*
X0081000Y0146000D03*
X0071000Y0146000D03*
X0061000Y0146000D03*
X0051000Y0146000D03*
X0041000Y0146000D03*
M02*
